<?xml version="1.0" standalone="no"?>
<!DOCTYPE svg PUBLIC "-//W3C//DTD SVG 20010904//EN"
 "http://www.w3.org/TR/2001/REC-SVG-20010904/DTD/svg10.dtd">
<svg version="1.0" xmlns="http://www.w3.org/2000/svg"
 width="512.000000pt" height="512.000000pt" viewBox="0 0 512.000000 512.000000"
 preserveAspectRatio="xMidYMid meet">

<g transform="translate(0.000000,512.000000) scale(0.100000,-0.100000)"
fill="#000000" stroke="none">
<path d="M3635 4953 c-38 -10 -77 -46 -96 -87 -16 -36 -19 -69 -19 -292 l0
-251 -149 -6 c-287 -13 -501 -59 -741 -159 -460 -193 -842 -550 -1062 -994
-137 -276 -171 -406 -249 -957 l-44 -308 25 -47 c47 -89 157 -117 232 -60 20
15 89 115 171 247 179 286 236 362 371 496 258 255 565 412 937 481 49 9 173
18 297 21 l212 6 0 -254 c0 -226 2 -259 19 -295 28 -61 73 -89 142 -89 50 0
63 5 101 35 24 19 327 283 674 587 434 379 636 563 648 586 20 44 20 90 0 134
-12 23 -214 207 -648 586 -347 304 -649 567 -671 585 -41 32 -106 47 -150 35z
m653 -897 c232 -203 422 -372 422 -376 0 -4 -195 -177 -432 -385 l-433 -378
-5 169 c-5 185 -9 197 -67 241 l-36 28 -256 3 c-146 2 -305 -2 -371 -8 -510
-51 -950 -263 -1299 -625 -118 -123 -117 -124 -55 65 44 136 147 340 232 460
86 123 300 336 422 422 223 157 497 269 760 309 41 6 186 14 322 18 228 6 249
8 274 27 65 48 69 60 72 245 3 133 6 168 16 162 7 -5 202 -174 434 -377z"/>
<path d="M95 4304 c-46 -24 -74 -55 -86 -93 -7 -24 -9 -675 -7 -1993 l3 -1957
21 -27 c11 -15 33 -37 48 -48 l27 -21 1979 0 1979 0 27 21 c15 11 37 33 48 48
21 27 21 37 24 872 3 935 6 887 -64 940 -31 24 -47 29 -94 29 -47 0 -63 -5
-94 -29 -69 -52 -66 -16 -66 -831 l0 -735 -1760 0 -1760 0 0 1760 0 1760 749
2 c739 3 750 3 777 24 44 32 66 68 71 116 7 58 -15 108 -63 144 l-37 29 -846
3 c-752 2 -849 0 -876 -14z"/>
</g>
</svg>
