<?xml version="1.0" standalone="no"?>
<!DOCTYPE svg PUBLIC "-//W3C//DTD SVG 20010904//EN"
 "http://www.w3.org/TR/2001/REC-SVG-20010904/DTD/svg10.dtd">
<svg version="1.0" xmlns="http://www.w3.org/2000/svg"
 width="512.000000pt" height="512.000000pt" viewBox="0 0 512.000000 512.000000"
 preserveAspectRatio="xMidYMid meet">

<g transform="translate(0.000000,512.000000) scale(0.100000,-0.100000)"
fill="#000000" stroke="none">
<path d="M2375 4794 c-108 -11 -262 -38 -367 -65 -756 -187 -1380 -789 -1596
-1539 -68 -235 -87 -373 -86 -635 0 -179 4 -243 22 -345 86 -500 305 -919 658
-1260 272 -263 595 -448 952 -546 223 -61 348 -77 597 -78 242 -1 343 11 559
65 621 155 1161 592 1453 1174 90 179 172 440 209 670 25 152 25 485 1 645
-75 487 -289 913 -631 1256 -134 134 -216 202 -356 293 -279 184 -570 295
-905 347 -97 15 -428 26 -510 18z m398 -569 c983 -129 1639 -1063 1426 -2030
-75 -337 -273 -671 -532 -896 -582 -506 -1415 -558 -2050 -128 -523 353 -804
977 -722 1602 67 514 353 953 795 1223 324 197 708 278 1083 229z"/>
<path d="M2357 3905 c-576 -94 -1019 -521 -1134 -1093 -24 -120 -24 -384 0
-504 84 -418 354 -775 730 -965 108 -54 289 -110 417 -129 133 -19 314 -15
448 11 542 105 969 534 1079 1085 25 122 24 384 -1 505 -103 496 -443 881
-918 1039 -43 14 -115 32 -160 41 -117 23 -351 28 -461 10z m373 -240 c277
-42 528 -187 704 -407 187 -234 277 -554 236 -843 -39 -269 -177 -529 -373
-697 -173 -148 -376 -239 -601 -269 -157 -20 -218 -6 -270 65 -21 27 -21 35
-24 1019 -1 546 0 1006 3 1024 7 40 49 91 90 109 40 17 118 17 235 -1z"/>
</g>
</svg>
